#
#
#

mtllib pyramid.mtl


#
# 
#
g 


#
# _lambert2
#
usemtl _lambert2

v -0.500000 -0.353553 -0.500000
v -0.500000 -0.353553 0.500000
v 0.500000 -0.353553 0.500000
v 0.500000 -0.353553 -0.500000
v 0.000000 0.353553 0.000000
v -0.500000 -0.353553 -0.500000
v -0.500000 -0.353553 0.500000
v -0.500000 -0.353553 0.500000
v 0.500000 -0.353553 0.500000
v 0.000000 0.353553 0.000000
v 0.500000 -0.353553 0.500000
v 0.500000 -0.353553 -0.500000
v 0.000000 0.353553 0.000000
v 0.500000 -0.353553 -0.500000
v -0.500000 -0.353553 -0.500000
v 0.000000 0.353553 0.000000
vn 0.000000 -1.000000 0.000000
vn -0.816497 0.577350 0.000000
vn 0.000000 0.577350 0.816497
vn 0.816497 0.577350 -0.000000
vn -0.000000 0.577350 -0.816497
vt 0.666003 0.666003
vt 0.333997 0.666003
vt 0.333997 0.333997
vt 0.666003 0.333997
vt 0.998008 0.500000
vt 0.500000 0.001992
vt 0.001992 0.499899
vt 0.500000 0.998008
f 1/1/1 4/2/1 3/3/1 2/4/1
f 6/1/2 7/4/2 5/5/2
f 8/4/3 9/3/3 10/6/3
f 11/3/4 12/2/4 13/7/4
f 14/2/5 15/1/5 16/8/5
